<svg width="40" height="40" viewBox="0 0 40 40" fill="none" xmlns="http://www.w3.org/2000/svg">
<g clip-path="url(#clip0_4070_1214)">
<path d="M17 20C17 20.5523 16.5523 21 16 21C15.4477 21 15 20.5523 15 20C15 19.4477 15.4477 19 16 19C16.5523 19 17 19.4477 17 20Z" fill="#333333"/>
<path d="M21 20C21 20.5523 20.5523 21 20 21C19.4477 21 19 20.5523 19 20C19 19.4477 19.4477 19 20 19C20.5523 19 21 19.4477 21 20Z" fill="#333333"/>
<path d="M24 21C24.5523 21 25 20.5523 25 20C25 19.4477 24.5523 19 24 19C23.4477 19 23 19.4477 23 20C23 20.5523 23.4477 21 24 21Z" fill="#333333"/>
<path d="M14.1647 27.8029L14.1849 27.7989C16.0143 27.4363 17.1334 26.9571 17.6528 26.6939C18.3951 26.8929 19.1832 27 20 27C24.4183 27 28 23.866 28 20C28 16.134 24.4183 13 20 13C15.5817 13 12 16.134 12 20C12 21.7609 12.7431 23.3699 13.9698 24.6001C13.896 25.3711 13.6942 26.1984 13.4465 26.9181L13.4426 26.9294C13.4124 27.0167 13.3816 27.1023 13.3503 27.1861C13.301 27.3179 13.2503 27.4451 13.199 27.5664C13.1204 27.7521 13.2727 27.9603 13.4717 27.9277C13.6126 27.9047 13.75 27.8808 13.8838 27.8563C13.9792 27.8388 14.0728 27.821 14.1647 27.8029ZM14.9652 24.6954C14.9936 24.3988 14.8883 24.1049 14.6779 23.894C13.6173 22.8304 13 21.4681 13 20C13 16.8075 16.0044 14 20 14C23.9956 14 27 16.8075 27 20C27 23.1925 23.9956 26 20 26C19.2708 26 18.5697 25.9044 17.9118 25.728C17.6738 25.6642 17.4206 25.6905 17.2008 25.8019C16.8136 25.9981 15.9617 26.3721 14.5668 26.6945C14.755 26.0519 14.9016 25.3601 14.9652 24.6954Z" fill="#333333"/>
</g>
<defs>
<clipPath id="clip0_4070_1214">
<rect width="16" height="16" fill="white" transform="translate(12 12)"/>
</clipPath>
</defs>
</svg>
