<svg width="276" height="164" viewBox="0 0 276 164" fill="none" xmlns="http://www.w3.org/2000/svg">
<path d="M32.5 159H44.5V162H32.5V159Z" fill="url(#paint0_linear_130_2986)"/>
<path d="M50.5 159H62.5V162H50.5V159Z" fill="url(#paint1_linear_130_2986)"/>
<path d="M68.5 159H80.5V162H68.5V159Z" fill="url(#paint2_linear_130_2986)"/>
<path d="M86.5 155H98.5V162H86.5V155Z" fill="url(#paint3_linear_130_2986)"/>
<path d="M104.5 151H116.5V162H104.5V151Z" fill="url(#paint4_linear_130_2986)"/>
<path d="M122.5 151H134.5V162H122.5V151Z" fill="url(#paint5_linear_130_2986)"/>
<path d="M140.5 151H152.5V162H140.5V151Z" fill="url(#paint6_linear_130_2986)"/>
<path d="M158.5 141H170.5V162H158.5V141Z" fill="url(#paint7_linear_130_2986)"/>
<path d="M176.5 127H188.5V162H176.5V127Z" fill="url(#paint8_linear_130_2986)"/>
<path d="M194.5 103H206.5V162H194.5V103Z" fill="url(#paint9_linear_130_2986)"/>
<path d="M212.5 79H224.5V162H212.5V79Z" fill="url(#paint10_linear_130_2986)"/>
<path d="M230.5 47H242.5V162H230.5V47Z" fill="url(#paint11_linear_130_2986)"/>
<defs>
<linearGradient id="paint0_linear_130_2986" x1="236.5" y1="47" x2="236.5" y2="282.5" gradientUnits="userSpaceOnUse">
<stop stop-color="white"/>
<stop offset="1" stop-color="#32C287"/>
</linearGradient>
<linearGradient id="paint1_linear_130_2986" x1="236.5" y1="47" x2="236.5" y2="282.5" gradientUnits="userSpaceOnUse">
<stop stop-color="white"/>
<stop offset="1" stop-color="#32C287"/>
</linearGradient>
<linearGradient id="paint2_linear_130_2986" x1="236.5" y1="47" x2="236.5" y2="282.5" gradientUnits="userSpaceOnUse">
<stop stop-color="white"/>
<stop offset="1" stop-color="#32C287"/>
</linearGradient>
<linearGradient id="paint3_linear_130_2986" x1="236.5" y1="47" x2="236.5" y2="282.5" gradientUnits="userSpaceOnUse">
<stop stop-color="white"/>
<stop offset="1" stop-color="#32C287"/>
</linearGradient>
<linearGradient id="paint4_linear_130_2986" x1="236.5" y1="47" x2="236.5" y2="282.5" gradientUnits="userSpaceOnUse">
<stop stop-color="white"/>
<stop offset="1" stop-color="#32C287"/>
</linearGradient>
<linearGradient id="paint5_linear_130_2986" x1="236.5" y1="47" x2="236.5" y2="282.5" gradientUnits="userSpaceOnUse">
<stop stop-color="white"/>
<stop offset="1" stop-color="#32C287"/>
</linearGradient>
<linearGradient id="paint6_linear_130_2986" x1="236.5" y1="47" x2="236.5" y2="282.5" gradientUnits="userSpaceOnUse">
<stop stop-color="white"/>
<stop offset="1" stop-color="#32C287"/>
</linearGradient>
<linearGradient id="paint7_linear_130_2986" x1="236.5" y1="47" x2="236.5" y2="282.5" gradientUnits="userSpaceOnUse">
<stop stop-color="white"/>
<stop offset="1" stop-color="#32C287"/>
</linearGradient>
<linearGradient id="paint8_linear_130_2986" x1="236.5" y1="47" x2="236.5" y2="282.5" gradientUnits="userSpaceOnUse">
<stop stop-color="white"/>
<stop offset="1" stop-color="#32C287"/>
</linearGradient>
<linearGradient id="paint9_linear_130_2986" x1="236.5" y1="47" x2="236.5" y2="282.5" gradientUnits="userSpaceOnUse">
<stop stop-color="white"/>
<stop offset="1" stop-color="#32C287"/>
</linearGradient>
<linearGradient id="paint10_linear_130_2986" x1="236.5" y1="47" x2="236.5" y2="282.5" gradientUnits="userSpaceOnUse">
<stop stop-color="white"/>
<stop offset="1" stop-color="#32C287"/>
</linearGradient>
<linearGradient id="paint11_linear_130_2986" x1="236.5" y1="47" x2="236.5" y2="282.5" gradientUnits="userSpaceOnUse">
<stop stop-color="white"/>
<stop offset="1" stop-color="#32C287"/>
</linearGradient>
</defs>
</svg>
