<svg width="176" height="106" viewBox="0 0 176 106" fill="none" xmlns="http://www.w3.org/2000/svg">
<path d="M149.466 32.9969C149.376 32.6563 149.028 32.453 148.687 32.5428L143.138 34.0059C142.797 34.0956 142.594 34.4445 142.683 34.785C142.773 35.1256 143.122 35.3289 143.463 35.2391L148.396 33.9386L149.696 38.8715C149.786 39.212 150.135 39.4153 150.475 39.3255C150.816 39.2358 151.019 38.8869 150.929 38.5464L149.466 32.9969ZM26.525 104.45C26.4536 104.795 26.6752 105.133 27.0201 105.204C27.3649 105.276 27.7024 105.054 27.7739 104.709L27.1494 104.58L26.525 104.45ZM31.2679 84.7022L31.8924 84.8315L31.2679 84.7022ZM40.3645 82.694L40.6389 82.1184L40.3645 82.694ZM51.3347 84.7171L50.7567 84.4476L51.3347 84.7171ZM65.6427 63.3621L66.1091 62.9272L65.6427 63.3621ZM60.9431 64.1065L60.3651 63.837L60.9431 64.1065ZM71.5014 64.0247L72.0676 64.318L71.5014 64.0247ZM77.9794 61.1649L77.4245 61.479L77.9794 61.1649ZM72.9342 61.2587L72.368 60.9654L72.9342 61.2587ZM97.0794 85.3943L97.6738 85.6252L97.0794 85.3943ZM103.02 76.7708L103.154 76.1473L103.02 76.7708ZM99.7432 78.5374L100.338 78.7683L99.7432 78.5374ZM113.031 76.5259L113.619 76.7727L113.031 76.5259ZM109.783 78.2215L109.917 77.598V77.598L109.783 78.2215ZM124.179 53.9497L124.232 54.5852L124.179 53.9497ZM121.769 55.6993L121.181 55.4526L121.769 55.6993ZM138.121 51.5695L138.672 51.8905L138.121 51.5695ZM135.878 52.9845L135.93 53.6201L135.878 52.9845ZM148.85 33.1594L148.299 32.8384L137.57 51.2484L138.121 51.5695L138.672 51.8905L149.401 33.4805L148.85 33.1594ZM135.878 52.9845L135.826 52.349L124.127 53.3142L124.179 53.9497L124.232 54.5852L135.93 53.6201L135.878 52.9845ZM121.769 55.6993L121.181 55.4526L112.443 76.2792L113.031 76.5259L113.619 76.7727L122.357 55.9461L121.769 55.6993ZM109.783 78.2215L109.917 77.598L103.154 76.1473L103.02 76.7708L102.886 77.3943L109.649 78.845L109.783 78.2215ZM99.7432 78.5374L99.1488 78.3065L96.485 85.1634L97.0794 85.3943L97.6738 85.6252L100.338 78.7683L99.7432 78.5374ZM91.9074 85.7688L92.4623 85.4546L78.5344 60.8507L77.9794 61.1649L77.4245 61.479L91.3524 86.0829L91.9074 85.7688ZM72.9342 61.2587L72.368 60.9654L70.9352 63.7314L71.5014 64.0247L72.0676 64.318L73.5004 61.552L72.9342 61.2587ZM66.8546 64.6618L67.321 64.2269L66.1091 62.9272L65.6427 63.3621L65.1763 63.7969L66.3882 65.0966L66.8546 64.6618ZM60.9431 64.1065L60.3651 63.837L50.7567 84.4476L51.3347 84.7171L51.9126 84.9865L61.5211 64.3759L60.9431 64.1065ZM47.4991 86.0949L47.7735 85.5193L40.6389 82.1184L40.3645 82.694L40.0901 83.2697L47.2247 86.6706L47.4991 86.0949ZM39.1297 82.4148V81.7771H34.0778V82.4148V83.0525H39.1297V82.4148ZM31.2679 84.7022L30.6435 84.5728L26.525 104.45L27.1494 104.58L27.7739 104.709L31.8924 84.8315L31.2679 84.7022ZM34.0778 82.4148V81.7771C32.4151 81.7771 30.9809 82.9446 30.6435 84.5728L31.2679 84.7022L31.8924 84.8315C32.107 83.7954 33.0197 83.0525 34.0778 83.0525V82.4148ZM40.3645 82.694L40.6389 82.1184C40.1675 81.8937 39.6519 81.7771 39.1297 81.7771V82.4148V83.0525C39.462 83.0525 39.7901 83.1267 40.0901 83.2697L40.3645 82.694ZM51.3347 84.7171L50.7567 84.4476C50.2327 85.5716 48.8929 86.0529 47.7735 85.5193L47.4991 86.0949L47.2247 86.6706C48.9838 87.5091 51.0892 86.7528 51.9126 84.9865L51.3347 84.7171ZM65.6427 63.3621L66.1091 62.9272C64.4133 61.1084 61.4158 61.5832 60.3651 63.837L60.9431 64.1065L61.5211 64.3759C62.1897 62.9417 64.0972 62.6395 65.1763 63.7969L65.6427 63.3621ZM71.5014 64.0247L70.9352 63.7314C70.2255 65.1014 68.3731 65.3554 67.321 64.2269L66.8546 64.6618L66.3882 65.0966C68.0415 66.8699 70.9525 66.4709 72.0676 64.318L71.5014 64.0247ZM77.9794 61.1649L78.5344 60.8507C77.1624 58.4271 73.6489 58.4925 72.368 60.9654L72.9342 61.2587L73.5004 61.552C74.3156 59.9783 76.5514 59.9367 77.4245 61.479L77.9794 61.1649ZM97.0794 85.3943L96.485 85.1634C95.8034 86.9179 93.3896 87.0927 92.4623 85.4546L91.9074 85.7688L91.3524 86.0829C92.8096 88.6569 96.6027 88.3823 97.6738 85.6252L97.0794 85.3943ZM103.02 76.7708L103.154 76.1473C101.47 75.786 99.7725 76.701 99.1488 78.3065L99.7432 78.5374L100.338 78.7683C100.735 77.7467 101.814 77.1644 102.886 77.3943L103.02 76.7708ZM113.031 76.5259L112.443 76.2792C112.027 77.2691 110.966 77.8231 109.917 77.598L109.783 78.2215L109.649 78.845C111.298 79.1988 112.966 78.3282 113.619 76.7727L113.031 76.5259ZM124.179 53.9497L124.127 53.3142C122.823 53.4218 121.687 54.2462 121.181 55.4526L121.769 55.6993L122.357 55.9461C122.679 55.1783 123.402 54.6537 124.232 54.5852L124.179 53.9497ZM138.121 51.5695L137.57 51.2484C137.203 51.8782 136.552 52.2891 135.826 52.349L135.878 52.9845L135.93 53.6201C137.072 53.5259 138.096 52.8802 138.672 51.8905L138.121 51.5695Z" fill="#BED8FF"/>
</svg>
