<svg width="225" height="53" viewBox="0 0 225 53" fill="none" xmlns="http://www.w3.org/2000/svg">
<path d="M94.7276 28.6597V9.23343H101.753V28.6597H94.7276ZM98.2401 7.20986C97.2898 7.20986 96.4754 6.8979 95.7966 6.27397C95.1179 5.65003 94.7785 4.89963 94.7785 4.02275C94.7785 3.14587 95.1179 2.39547 95.7966 1.77153C96.4754 1.1476 97.2898 0.835634 98.2401 0.835634C99.1988 0.835634 100.013 1.1476 100.684 1.77153C101.362 2.39547 101.702 3.14587 101.702 4.02275C101.702 4.89963 101.362 5.65003 100.684 6.27397C100.013 6.8979 99.1988 7.20986 98.2401 7.20986Z" fill="white"/>
<path d="M65.274 28.6597V2.75802H72.3499V13.23H72.7062L80.5457 2.75802H88.7924L79.9857 14.2923L88.996 28.6597H80.5457L74.6915 18.9465L72.3499 21.9819V28.6597H65.274Z" fill="white"/>
<path d="M59.4183 2.75802V28.6597H53.5132L44.0957 15.0512H43.943V28.6597H36.8671V2.75802H42.8739L52.1388 16.3159H52.3424V2.75802H59.4183Z" fill="white"/>
<path d="M31.005 2.75802V28.6597H23.9292V2.75802H31.005Z" fill="white"/>
<path d="M0.9469 28.6597V2.75802H8.02279V22.9937H18.5603V28.6597H0.9469Z" fill="white"/>
<path d="M101.752 8.81611L102.173 9.23337C102.07 15.7088 101.967 22.1842 101.864 28.6597L101.752 28.7703C100.296 28.7475 98.8406 28.7246 97.3849 28.7018L94.7276 28.6597H93.8879C93.9019 27.7794 93.9153 26.8992 93.9293 26.0189C94.0183 20.4238 94.1074 14.8285 94.1964 9.23337L94.7276 8.70543C97.0692 8.7422 99.4107 8.77933 101.752 8.81611ZM95.2668 9.75251C95.353 15.1746 95.4398 20.5968 95.526 26.0189C95.5399 26.8946 95.5525 27.7703 95.5664 28.6459C96.1726 28.6364 96.7787 28.6271 97.3849 28.6175C98.8032 28.5953 100.221 28.5722 101.64 28.55C101.54 22.2521 101.438 15.9543 101.338 9.65652C99.3144 9.6883 97.2906 9.72072 95.2668 9.75251ZM98.2404 0.000673452C99.3026 -0.0192388 100.473 0.403208 101.257 1.16235L101.396 1.29067C102.093 1.97435 102.568 3.02674 102.542 4.02247C102.57 5.08477 102.027 6.21166 101.253 6.88651L101.257 6.88357C100.776 7.33618 100.161 7.69477 99.505 7.8758C99.0856 7.99392 98.6564 8.04444 98.2404 8.04427C97.823 8.04451 97.392 7.99303 96.9729 7.87384C96.3182 7.6911 95.7083 7.33332 95.2264 6.88651C94.4529 6.21166 93.9101 5.08475 93.9382 4.02247C93.9102 2.96025 94.4529 1.83322 95.2264 1.15843C96.0106 0.409868 97.1739 -0.01915 98.2404 0.000673452ZM98.2404 1.67071C97.5165 1.66813 96.8841 1.90512 96.3667 2.38476C95.8682 2.84122 95.6165 3.37964 95.6187 4.02247C95.6164 4.66552 95.868 5.2046 96.3667 5.66116C96.6825 5.95187 97.0389 6.1567 97.4342 6.26845C97.6878 6.34051 97.9587 6.37529 98.2404 6.37521C98.5231 6.37526 98.7941 6.34079 99.0476 6.26943C99.4433 6.1586 99.7975 5.95556 100.109 5.66508L100.113 5.66116C100.612 5.20457 100.864 4.66558 100.862 4.02247C100.864 3.45976 100.671 2.97689 100.289 2.55911L100.109 2.38084C99.5991 1.90186 98.968 1.66828 98.2404 1.67071Z" fill="white"/>
<path d="M72.3501 2.12911L72.9829 2.75795C72.9635 5.84137 72.9431 8.92486 72.9237 12.0083C75.3348 8.8292 77.7471 5.65101 80.1582 2.47193L80.5455 2.27799C83.2944 2.29505 86.0434 2.31187 88.7922 2.32893L89.1362 3.01751C86.2238 6.78297 83.3102 10.5476 80.3977 14.313C83.3298 19.0541 86.2622 23.7951 89.1944 28.5362L88.9963 28.8928C86.1795 28.8753 83.3623 28.8574 80.5455 28.8399L80.3898 28.7527C78.486 25.5487 76.5829 22.344 74.6791 19.14C73.931 20.0972 73.183 21.0546 72.4349 22.0118C72.4209 24.2278 72.4084 26.4437 72.3945 28.6597L72.3501 28.7037C72.2332 28.703 72.1161 28.7025 71.9992 28.7018L65.274 28.6597H64.4336C64.4476 26.432 64.462 24.2043 64.476 21.9766C64.5162 15.5705 64.5569 9.164 64.5972 2.75795L65.2743 2.08503C67.6328 2.09967 69.9916 2.11448 72.3501 2.12911ZM80.791 3.23594C78.247 6.67882 75.7032 10.1218 73.1593 13.5647L72.7059 13.791C72.5873 13.7917 72.4687 13.7932 72.3501 13.7939L71.7824 13.2297C71.7618 9.94971 71.7409 6.66972 71.7203 3.38972C69.7987 3.40164 67.877 3.41404 65.9554 3.42596C65.9942 9.60937 66.0328 15.7932 66.0717 21.9766C66.0857 24.2023 66.0991 26.428 66.1131 28.6538C68.0751 28.6416 70.0372 28.6297 71.9992 28.6175C72.1011 28.6169 72.2029 28.6162 72.3048 28.6156C72.2909 26.4044 72.2773 24.1927 72.2634 21.9815L72.2811 21.9296C73.0552 20.913 73.8301 19.8969 74.6042 18.8804L74.7856 18.8902C76.7392 22.0863 78.6934 25.2824 80.6471 28.4785C83.2885 28.4621 85.93 28.4449 88.5715 28.4285C85.6131 23.7763 82.6552 19.1239 79.6969 14.4717L79.7147 14.0877C82.4518 10.456 85.1878 6.82357 87.9249 3.19186C85.5469 3.20662 83.1689 3.22118 80.791 3.23594Z" fill="white"/>
<path d="M42.8741 2.53364L43.0614 2.63159C46.1098 7.15113 49.1575 11.6712 52.206 16.1907C52.2096 16.1907 52.2132 16.1907 52.2168 16.1907C52.244 11.7131 52.2724 7.23551 52.2996 2.75795L52.342 2.71583C52.3839 2.71608 52.4262 2.71558 52.4681 2.71583C54.7847 2.72974 57.1017 2.74411 59.4183 2.75802L60.2585 2.75795C60.2445 5.06006 60.2301 7.36224 60.2161 9.66435C60.1776 15.9961 60.1393 22.3279 60.1008 28.6597L59.4187 29.3375C57.4504 29.3256 55.4813 29.314 53.5129 29.3022L52.9807 29.024C50.1468 24.8756 47.3126 20.727 44.4787 16.5786C44.4542 20.6056 44.4302 24.6326 44.4058 28.6597L43.9425 29.119C41.584 29.1049 39.2252 29.0911 36.8667 29.0769L36.4469 28.6597C36.4994 20.0258 36.5521 11.3918 36.6046 2.75795L36.8667 2.4974C38.869 2.50943 40.8718 2.52162 42.8741 2.53364ZM52.4681 2.80006C52.4405 2.80023 52.4129 2.7999 52.3853 2.80006C52.4127 7.30535 52.4398 11.8108 52.4672 16.3161L52.342 16.4405C52.2743 16.4409 52.2066 16.4411 52.1389 16.4415L52.0345 16.3866C48.9413 11.9185 45.848 7.45032 42.7548 2.98225C40.8802 2.99351 39.0055 3.00527 37.1309 3.01653C37.182 11.4242 37.2325 19.8318 37.2837 28.2395C39.3482 28.2271 41.4128 28.2146 43.4773 28.2022C43.4506 23.8187 43.4241 19.4351 43.3975 15.0516L43.9425 14.5089C43.9933 14.5086 44.0445 14.5082 44.0953 14.5079L44.5457 14.744C47.6467 19.1675 50.748 23.5907 53.849 28.0142C55.4763 28.0044 57.1035 27.9955 58.7308 27.9858C58.6936 21.8787 58.6575 15.7714 58.6204 9.66435C58.6064 7.36385 58.592 5.06335 58.578 2.76284C56.5415 2.77507 54.5046 2.78783 52.4681 2.80006Z" fill="white"/>
<path d="M27.6906 2.71583C28.7953 2.72974 29.9004 2.74411 31.005 2.75802L31.845 2.75795C31.831 3.85561 31.8166 4.95334 31.8026 6.051C31.7065 13.5871 31.6109 21.1236 31.5148 28.6597L31.0052 29.1661C28.6467 29.1364 26.288 29.1066 23.9295 29.0769L23.5096 28.6597C23.6197 20.0258 23.7297 11.3918 23.8398 2.75795L23.9295 2.66881C25.1832 2.6846 26.4369 2.70004 27.6906 2.71583ZM27.6906 2.80006C26.4671 2.81547 25.2436 2.82971 24.0201 2.84512C24.1281 11.3089 24.2355 19.7727 24.3434 28.2365C26.3919 28.2107 28.4403 28.1849 30.4888 28.1591C30.3948 20.7899 30.3009 13.4203 30.2069 6.051C30.1929 4.95658 30.1795 3.86216 30.1655 2.76774C29.3407 2.77813 28.5154 2.78968 27.6906 2.80006Z" fill="white"/>
<path d="M8.02253 2.23979L8.54392 2.75795C8.47969 9.39627 8.41595 16.0347 8.35173 22.673C11.7544 22.7055 15.1571 22.7384 18.5598 22.7709L18.7845 22.9933C18.7663 24.882 18.7476 26.771 18.7293 28.6597L18.5598 28.8281C14.1449 28.7859 9.72995 28.744 5.31503 28.7018C3.85912 28.6879 2.4028 28.6736 0.9469 28.6597H0.107002C0.120999 27.2129 0.135386 25.7662 0.149383 24.3195C0.218922 17.1325 0.287811 9.94497 0.357349 2.75795L0.946751 2.17221C3.30529 2.19475 5.66399 2.21726 8.02253 2.23979ZM1.54108 3.33781C1.60875 10.3316 1.67744 17.3258 1.7451 24.3195C1.75907 25.7633 1.77155 27.2071 1.78551 28.6508C2.96188 28.6396 4.13867 28.6288 5.31503 28.6175C9.67312 28.5759 14.0312 28.5338 18.3893 28.4922C18.3723 26.7343 18.3551 24.9764 18.338 23.2186C14.8996 23.2514 11.4609 23.2846 8.02253 23.3175L7.69727 22.9933C7.6337 16.4225 7.56964 9.85176 7.50606 3.281C5.51774 3.3 3.52941 3.31881 1.54108 3.33781Z" fill="white"/>
<path d="M225 43.1541V52.8672H223.645L218.677 45.7436H218.586V52.8672H217.111V43.1541H218.476L223.449 50.2872H223.54V43.1541H225Z" fill="white"/>
<path d="M214.735 48.0106C214.735 49.0477 214.544 49.9394 214.162 50.6855C213.781 51.4286 213.257 52.0009 212.592 52.4024C211.93 52.8008 211.178 53 210.335 53C209.489 53 208.733 52.8008 208.068 52.4024C207.406 52.0009 206.884 51.427 206.503 50.6808C206.121 49.9346 205.93 49.0446 205.93 48.0106C205.93 46.9736 206.121 46.0835 206.503 45.3405C206.884 44.5943 207.406 44.022 208.068 43.6236C208.733 43.2221 209.489 43.0213 210.335 43.0213C211.178 43.0213 211.93 43.2221 212.592 43.6236C213.257 44.022 213.781 44.5943 214.162 45.3405C214.544 46.0835 214.735 46.9736 214.735 48.0106ZM213.275 48.0106C213.275 47.2202 213.146 46.5546 212.888 46.014C212.634 45.4701 212.284 45.0591 211.838 44.7808C211.396 44.4994 210.895 44.3587 210.335 44.3587C209.772 44.3587 209.269 44.4994 208.827 44.7808C208.385 45.0591 208.035 45.4701 207.777 46.014C207.522 46.5546 207.395 47.2202 207.395 48.0106C207.395 48.8011 207.522 49.4682 207.777 50.0121C208.035 50.5527 208.385 50.9638 208.827 51.2452C209.269 51.5234 209.772 51.6625 210.335 51.6625C210.895 51.6625 211.396 51.5234 211.838 51.2452C212.284 50.9638 212.634 50.5527 212.888 50.0121C213.146 49.4682 213.275 48.8011 213.275 48.0106Z" fill="white"/>
<path d="M203.56 43.1541V52.8672H202.085V43.1541H203.56Z" fill="white"/>
<path d="M192.312 44.4157V43.1541H199.876V44.4157H196.827V52.8672H195.357V44.4157H192.312Z" fill="white"/>
<path d="M190.105 43.1541V52.8672H188.75L183.782 45.7436H183.691V52.8672H182.216V43.1541H183.581L188.554 50.2872H188.645V43.1541H190.105Z" fill="white"/>
<path d="M173.581 52.8672V43.1541H179.709V44.4157H175.056V47.3751H179.389V48.632H175.056V51.6057H179.766V52.8672H173.581Z" fill="white"/>
<path d="M163.808 44.4157V43.1541H171.372V44.4157H168.322V52.8672H166.853V44.4157H163.808Z" fill="white"/>
<path d="M161.601 43.1541V52.8672H160.246L155.278 45.7436H155.187V52.8672H153.712V43.1541H155.077L160.05 50.2872H160.141V43.1541H161.601Z" fill="white"/>
<path d="M151.027 43.1541V52.8672H149.552V43.1541H151.027Z" fill="white"/>
<path d="M133.697 52.8672L130.986 43.1541H132.537L134.442 50.6761H134.532L136.513 43.1541H138.05L140.03 50.6808H140.121L142.02 43.1541H143.576L140.861 52.8672H139.376L137.319 45.5919H137.243L135.186 52.8672H133.697Z" fill="white"/>
<path d="M123.148 52.8672V43.1541H129.276V44.4157H124.623V47.3751H128.956V48.632H124.623V51.6057H129.333V52.8672H123.148Z" fill="white"/>
<path d="M120.46 43.1541V52.8672H119.104L114.136 45.7436H114.045V52.8672H112.571V43.1541H113.936L118.909 50.2872H118.999V43.1541H120.46Z" fill="white"/>
<path d="M103.109 52.8672V43.1541H104.583V47.7925H104.703L108.802 43.1541H110.659L106.717 47.5269L110.673 52.8672H108.898L105.738 48.5276L104.583 49.8461V52.8672H103.109Z" fill="white"/>
<path d="M89.8152 52.8672V43.1541H93.299C94.0563 43.1541 94.6846 43.2837 95.1841 43.543C95.6868 43.8023 96.0623 44.1611 96.3104 44.6196C96.5586 45.0749 96.6827 45.6014 96.6827 46.1989C96.6827 46.7934 96.557 47.3166 96.3057 47.7688C96.0575 48.2178 95.6821 48.5671 95.1794 48.8169C94.6799 49.0667 94.0515 49.1916 93.2943 49.1916H90.6551V47.93H93.1607C93.6379 47.93 94.026 47.8621 94.3251 47.7261C94.6274 47.5901 94.8485 47.3925 94.9885 47.1333C95.1285 46.874 95.1985 46.5625 95.1985 46.1989C95.1985 45.8322 95.1269 45.5144 94.9837 45.2457C94.8437 44.9769 94.6226 44.7714 94.3203 44.6291C94.0213 44.4837 93.6283 44.4109 93.1416 44.4109H91.2899V52.8672H89.8152ZM94.6401 48.4849L97.0549 52.8672H95.375L93.0079 48.4849H94.6401Z" fill="white"/>
<path d="M81.18 52.8672V43.1541H87.3078V44.4157H82.6547V47.3751H86.9881V48.632H82.6547V51.6057H87.3651V52.8672H81.18Z" fill="white"/>
<path d="M72.0867 43.1541L74.807 51.065H74.9168L77.637 43.1541H79.231L75.7138 52.8672H74.01L70.4928 43.1541H72.0867Z" fill="white"/>
<path d="M62.5973 52.8672V43.1541H68.7251V44.4157H64.072V47.3751H68.4053V48.632H64.072V51.6057H68.7823V52.8672H62.5973Z" fill="white"/>
<path d="M59.9086 43.1541V52.8672H58.5532L53.5852 45.7436H53.4945V52.8672H52.0198V43.1541H53.3847L58.3576 50.2872H58.4482V43.1541H59.9086Z" fill="white"/>
<path d="M38.1522 44.4157V43.1541H45.7165V44.4157H42.6669V52.8672H41.197V44.4157H38.1522Z" fill="white"/>
<path d="M35.9491 43.1541V52.8672H34.4745V43.1541H35.9491Z" fill="white"/>
<path d="M21.7451 52.8672V43.1541H27.8729V44.4157H23.2198V47.3751H27.5531V48.632H23.2198V51.6057H27.9301V52.8672H21.7451Z" fill="white"/>
<path d="M12.2831 52.8672V43.1541H13.7578V47.7925H13.8771L17.9766 43.1541H19.8331L15.8911 47.5269L19.8474 52.8672H18.0721L14.9127 48.5276L13.7578 49.8461V52.8672H12.2831Z" fill="white"/>
<path d="M9.59798 43.1541V52.8672H8.12331V43.1541H9.59798Z" fill="white"/>
<path d="M0 52.8672V43.1541H1.47467V51.6057H5.90347V52.8672H0Z" fill="white"/>
</svg>
