<svg width="160" height="20" viewBox="0 0 160 20" fill="none" xmlns="http://www.w3.org/2000/svg">
<path d="M63.4841 19.0492V6.13708H68.1973V19.0492H63.4841ZM65.8407 4.79206C65.2031 4.79206 64.6567 4.58471 64.2013 4.16999C63.7459 3.75528 63.5182 3.25651 63.5182 2.67367C63.5182 2.09083 63.7459 1.59205 64.2013 1.17734C64.6567 0.762626 65.2031 0.55527 65.8407 0.55527C66.4839 0.55527 67.0304 0.762626 67.4801 1.17734C67.9355 1.59205 68.1632 2.09083 68.1632 2.67367C68.1632 3.25651 67.9355 3.75528 67.4801 4.16999C67.0304 4.58471 66.4839 4.79206 65.8407 4.79206Z" fill="white"/>
<path d="M43.7228 19.0492V1.83303H48.4702V8.79347H48.7093L53.969 1.83303H59.5019L53.5933 9.49961L59.6386 19.0492H53.969L50.0413 12.5931L48.4702 14.6107V19.0492H43.7228Z" fill="white"/>
<path d="M39.794 1.83303V19.0492H35.8322L29.5137 10.004H29.4112V19.0492H24.6638V1.83303H28.694L34.91 10.8446H35.0466V1.83303H39.794Z" fill="white"/>
<path d="M20.7308 1.83303V19.0492H15.9834V1.83303H20.7308Z" fill="white"/>
<path d="M0.563886 19.0492V1.83303H5.3113V15.2832H12.3812V19.0492H0.563886Z" fill="white"/>
<path d="M68.1974 5.86L68.4792 6.13741C68.4101 10.4413 68.3406 14.7453 68.2715 19.0492L68.1974 19.1229C67.2206 19.1077 66.2435 19.0919 65.2667 19.0767L63.4841 19.0492H62.9208C62.9302 18.4641 62.9393 17.8788 62.9487 17.2937C63.0084 13.575 63.068 9.85618 63.1277 6.13741L63.4843 5.78631C65.0553 5.81075 66.6264 5.83555 68.1974 5.86ZM63.8454 6.482C63.9032 10.0859 63.9614 13.6898 64.0193 17.2937C64.0286 17.8757 64.0378 18.4579 64.0471 19.0398C64.4537 19.0335 64.8602 19.0281 65.2667 19.0218C66.2181 19.007 67.1697 18.991 68.1211 18.9762C68.0539 14.7903 67.9872 10.6044 67.92 6.41843C66.5618 6.43956 65.2036 6.46087 63.8454 6.482ZM65.8405 0.000451563C66.5532 -0.0128447 67.3384 0.268019 67.865 0.772718L67.8628 0.769828C68.3817 1.21833 68.7452 1.96739 68.7265 2.6734C68.7453 3.37941 68.3817 4.12841 67.8628 4.57698L67.7403 4.68462C67.4387 4.93365 67.0746 5.12977 66.6895 5.2351C66.408 5.31365 66.1197 5.34721 65.8405 5.34708C65.5606 5.34722 65.2719 5.31283 64.9908 5.23366C64.5515 5.11222 64.1423 4.874 63.8189 4.57698C63.3 4.12842 62.9357 3.37949 62.9546 2.6734C62.9358 1.9674 63.3 1.21833 63.8189 0.769828C64.3121 0.303523 65.0284 0.0235392 65.7055 0.00117398L65.8405 0.000451563ZM65.8405 1.11009C65.3549 1.10841 64.9314 1.26603 64.5843 1.58472C64.2496 1.88814 64.0802 2.24606 64.0816 2.6734C64.0801 3.10086 64.2496 3.45933 64.5843 3.76281C64.7961 3.95597 65.0352 4.0924 65.3004 4.16665C65.4704 4.21446 65.6517 4.23748 65.8405 4.23744C66.0303 4.23749 66.2126 4.21485 66.3828 4.16737C66.6483 4.09369 66.8854 3.95809 67.0945 3.76498L67.0975 3.76281C67.4322 3.45933 67.6009 3.10086 67.5994 2.6734C67.6008 2.24609 67.4321 1.88813 67.0975 1.58472L67.0945 1.58255C66.7523 1.26412 66.3288 1.10843 65.8405 1.11009Z" fill="white"/>
<path d="M48.4705 1.41495L48.8946 1.83323C48.8816 3.88274 48.868 5.93224 48.855 7.98174C50.4728 5.86854 52.0912 3.75572 53.7089 1.64251L53.9687 1.51392C55.813 1.52526 57.6578 1.53654 59.5021 1.54787L59.7325 2.00517C57.7787 4.50773 55.8242 7.00999 53.8704 9.51255C55.8377 12.664 57.8048 15.8161 59.7722 18.9676L59.6386 19.2038C57.7487 19.1922 55.8586 19.1807 53.9687 19.1691L53.8645 19.1106C52.5873 16.9811 51.3099 14.8517 50.0327 12.7223C49.5309 13.3583 49.0288 13.9941 48.527 14.6302C48.5177 16.1032 48.5092 17.5762 48.4998 19.0492L48.4705 19.0781C48.3921 19.0776 48.3134 19.0771 48.235 19.0767L43.7228 19.0492L43.1594 19.0492C43.1688 17.5685 43.1779 16.0878 43.1873 14.6071C43.2143 10.3492 43.2417 6.09111 43.2687 1.83323L43.7229 1.38605C45.3054 1.39578 46.8881 1.40522 48.4705 1.41495ZM54.1338 2.15037C52.4269 4.4389 50.7204 6.72772 49.0135 9.01625L48.709 9.16651C48.6295 9.167 48.55 9.16747 48.4705 9.16796L48.0897 8.79374C48.0758 6.61381 48.0617 4.43361 48.0478 2.25368C46.7583 2.26161 45.4688 2.26959 44.1794 2.27752C44.2054 6.3873 44.2318 10.4973 44.2579 14.6071C44.2673 16.0866 44.2764 17.5661 44.2858 19.0456C45.6021 19.0375 46.9186 19.0299 48.235 19.0218C48.3032 19.0213 48.3714 19.0207 48.4397 19.0203C48.4304 17.5504 48.4218 16.0805 48.4125 14.6107L48.4243 14.576C48.9437 13.9003 49.4634 13.2246 49.9828 12.5489L50.1046 12.5561C51.4153 14.6803 52.7262 16.8044 54.0369 18.9286C55.8093 18.9177 57.5816 18.907 59.3539 18.8961C57.369 15.8037 55.3842 12.7111 53.3993 9.61874L53.411 9.36373C55.2476 6.94961 57.0837 4.53487 58.9202 2.12075C57.3248 2.13056 55.7293 2.14056 54.1338 2.15037Z" fill="white"/>
<path d="M28.6937 1.68369L28.8192 1.74943C30.8644 4.75331 32.9098 7.75701 34.955 10.7609C34.9575 10.7609 34.9599 10.7609 34.9624 10.7609C34.9806 7.785 34.9999 4.80912 35.0181 1.83323L35.0467 1.80506C35.0749 1.80522 35.103 1.80489 35.1311 1.80506C36.6854 1.8143 38.2398 1.82378 39.794 1.83303L40.3578 1.83323C40.3484 3.36332 40.3386 4.8934 40.3292 6.42348C40.3034 10.632 40.278 14.8407 40.2522 19.0492L39.7943 19.5C38.4737 19.4921 37.1525 19.484 35.8319 19.4762L35.4745 19.2912C33.5733 16.534 31.6721 13.7767 29.7709 11.0195C29.7544 13.6961 29.7381 16.3726 29.7217 19.0492L29.4113 19.3548C27.8288 19.3454 26.2462 19.336 24.6638 19.3266L24.382 19.0492L24.4877 1.83323L24.6638 1.65985C26.0071 1.66784 27.3504 1.6757 28.6937 1.68369ZM35.1311 1.86068C35.1125 1.86079 35.0939 1.86057 35.0754 1.86068C35.0937 4.85533 35.112 7.85004 35.1304 10.8447L35.0467 10.927C35.0013 10.9273 34.9557 10.9282 34.9103 10.9285L34.8398 10.8916C32.7645 7.92177 30.689 4.95192 28.6137 1.98205C27.356 1.98953 26.0983 1.99768 24.8406 2.00517C24.8749 7.59332 24.909 13.1815 24.9433 18.7696C26.3285 18.7614 27.7136 18.7533 29.0987 18.7451C29.0808 15.8314 29.0631 12.9175 29.0452 10.0038L29.4113 9.64403C29.4453 9.64383 29.4793 9.64351 29.5133 9.64331L29.8156 9.79935C31.8964 12.7398 33.9772 15.6804 36.0579 18.6208C37.1498 18.6143 38.2416 18.6071 39.3335 18.6006C39.3086 14.5416 39.2835 10.4825 39.2586 6.42348C39.2492 4.89436 39.2401 3.36524 39.2308 1.83612C37.8643 1.84425 36.4976 1.85255 35.1311 1.86068Z" fill="white"/>
<path d="M18.5074 1.80506C19.2485 1.8143 19.9897 1.82378 20.7308 1.83303L21.2943 1.83323C21.2849 2.56283 21.2758 3.29256 21.2664 4.02216C21.2019 9.03118 21.1371 14.0402 21.0727 19.0492L20.7307 19.3859C19.1483 19.3661 17.5656 19.3464 15.9832 19.3266L15.7014 19.0492L15.923 1.83323L15.9832 1.77399C16.8245 1.78449 17.666 1.79456 18.5074 1.80506ZM18.5074 1.86068C17.6863 1.87093 16.8652 1.88078 16.0441 1.89102C16.1165 7.51675 16.1889 13.1425 16.2613 18.7682C17.6356 18.751 19.01 18.7333 20.3844 18.7162C20.3213 13.8182 20.2581 8.92017 20.1951 4.02216C20.1857 3.29472 20.1765 2.56717 20.1672 1.83973C19.6139 1.84663 19.0606 1.85378 18.5074 1.86068Z" fill="white"/>
<path d="M5.31109 1.48864L5.6611 1.83323C5.61801 6.24529 5.57432 10.6573 5.53122 15.0694C7.8145 15.091 10.0978 15.1135 12.3811 15.1351L12.5315 15.2832C12.5192 16.5386 12.507 17.7939 12.4948 19.0492L12.3811 19.1612C9.41881 19.1331 6.4565 19.1047 3.49425 19.0767C2.51747 19.0674 1.54067 19.0585 0.563886 19.0492L0 19.0492C0.00939237 18.0875 0.019225 17.1256 0.0286174 16.1639C0.0752711 11.387 0.122115 6.61011 0.168769 1.83323L0.563542 1.44385C2.14594 1.45883 3.72869 1.47366 5.31109 1.48864ZM0.962718 2.21828C1.00812 6.86681 1.0538 11.5153 1.0992 16.1639C1.10857 17.1236 1.11698 18.0837 1.12635 19.0434C1.91565 19.036 2.70495 19.0292 3.49425 19.0218C6.4181 18.9941 9.342 18.9656 12.2658 18.938C12.2544 17.7693 12.2428 16.6007 12.2314 15.4321C9.92467 15.4539 7.61778 15.4767 5.31109 15.4985L5.09316 15.2832C5.0505 10.9155 5.00741 6.54772 4.96475 2.17999C3.63074 2.19262 2.29673 2.20565 0.962718 2.21828Z" fill="white"/>
<path d="M159.75 11.8534V18.3095H158.841L155.507 13.5746H155.447V18.3095H154.457V11.8534H155.373L158.709 16.5946H158.77V11.8534H159.75Z" fill="white"/>
<path d="M152.863 15.0814C152.863 15.7707 152.735 16.3634 152.479 16.8594C152.223 17.3532 151.871 17.7336 151.425 18.0005C150.981 18.2653 150.476 18.3977 149.911 18.3977C149.343 18.3977 148.836 18.2653 148.39 18.0005C147.946 17.7336 147.596 17.3522 147.34 16.8562C147.083 16.3602 146.955 15.7686 146.955 15.0814C146.955 14.3921 147.083 13.8005 147.34 13.3066C147.596 12.8107 147.946 12.4303 148.39 12.1655C148.836 11.8986 149.343 11.7651 149.911 11.7651C150.476 11.7651 150.981 11.8986 151.425 12.1655C151.871 12.4303 152.223 12.8107 152.479 13.3066C152.735 13.8005 152.863 14.3921 152.863 15.0814ZM151.883 15.0814C151.883 14.556 151.797 14.1136 151.624 13.7543C151.453 13.3928 151.218 13.1196 150.919 12.9347C150.623 12.7476 150.286 12.6541 149.911 12.6541C149.533 12.6541 149.196 12.7476 148.899 12.9347C148.602 13.1196 148.367 13.3928 148.195 13.7543C148.024 14.1136 147.938 14.556 147.938 15.0814C147.938 15.6068 148.024 16.0503 148.195 16.4117C148.367 16.7711 148.602 17.0443 148.899 17.2313C149.196 17.4163 149.533 17.5088 149.911 17.5088C150.286 17.5088 150.623 17.4163 150.919 17.2313C151.218 17.0443 151.453 16.7711 151.624 16.4117C151.797 16.0503 151.883 15.6068 151.883 15.0814Z" fill="white"/>
<path d="M145.365 11.8534V18.3095H144.376V11.8534H145.365Z" fill="white"/>
<path d="M137.819 12.6919V11.8534H142.894V12.6919H140.848V18.3095H139.861V12.6919H137.819Z" fill="white"/>
<path d="M136.338 11.8534V18.3095H135.429L132.095 13.5746H132.035V18.3095H131.045V11.8534H131.961L135.297 16.5946H135.358V11.8534H136.338Z" fill="white"/>
<path d="M125.252 18.3095V11.8534H129.363V12.6919H126.241V14.659H129.148V15.4944H126.241V17.4709H129.401V18.3095H125.252Z" fill="white"/>
<path d="M118.694 12.6919V11.8534H123.769V12.6919H121.723V18.3095H120.737V12.6919H118.694Z" fill="white"/>
<path d="M117.214 11.8534V18.3095H116.304L112.971 13.5746H112.91V18.3095H111.921V11.8534H112.837L116.173 16.5946H116.234V11.8534H117.214Z" fill="white"/>
<path d="M110.119 11.8534V18.3095H109.13V11.8534H110.119Z" fill="white"/>
<path d="M98.4923 18.3095L96.6736 11.8534H97.7143L98.9918 16.8531H99.0527L100.381 11.8534H101.413L102.741 16.8562H102.802L104.077 11.8534H105.12L103.298 18.3095H102.303L100.923 13.4737H100.871L99.4913 18.3095H98.4923Z" fill="white"/>
<path d="M91.4148 18.3095V11.8534H95.5261V12.6919H92.4042V14.659H95.3116V15.4944H92.4042V17.4709H95.5645V18.3095H91.4148Z" fill="white"/>
<path d="M89.6109 11.8534V18.3095H88.7015L85.3683 13.5746H85.3074V18.3095H84.318V11.8534H85.2338L88.5702 16.5946H88.6311V11.8534H89.6109Z" fill="white"/>
<path d="M77.9697 18.3095V11.8534H78.9591V14.9364H79.0392L81.7896 11.8534H83.0352L80.3904 14.7599L83.0448 18.3095H81.8537L79.734 15.425L78.9591 16.3014V18.3095H77.9697Z" fill="white"/>
<path d="M138.229 7.95284V1.49677H140.567C141.075 1.49677 141.496 1.58294 141.831 1.75527C142.169 1.9276 142.421 2.16613 142.587 2.47086C142.754 2.77349 142.837 3.1234 142.837 3.5206C142.837 3.9157 142.753 4.26351 142.584 4.56404C142.417 4.86246 142.166 5.09469 141.828 5.26071C141.493 5.42674 141.072 5.50975 140.564 5.50975H138.793V4.67122H140.474C140.794 4.67122 141.054 4.62603 141.255 4.53567C141.458 4.4453 141.606 4.31395 141.7 4.14162C141.794 3.96929 141.841 3.76228 141.841 3.5206C141.841 3.27682 141.793 3.06561 141.697 2.88697C141.603 2.70834 141.455 2.57173 141.252 2.47716C141.051 2.38049 140.788 2.33215 140.461 2.33215H139.219V7.95284H138.229ZM141.466 5.04005L143.087 7.95284H141.96L140.371 5.04005H141.466Z" fill="white"/>
<path d="M132.436 7.95284V1.49677H136.547V2.33531H133.425V4.30239H136.333V5.13777H133.425V7.11431H136.585V7.95284H132.436Z" fill="white"/>
<path d="M126.335 1.49677L128.16 6.75494H128.234L130.059 1.49677H131.128L128.768 7.95284H127.625L125.265 1.49677H126.335Z" fill="white"/>
<path d="M119.968 7.95284V1.49677H124.079V2.33531H120.957V4.30239H123.865V5.13777H120.957V7.11431H124.118V7.95284H119.968Z" fill="white"/>
<path d="M118.164 1.49677V7.95284H117.255L113.922 3.21797H113.861V7.95284H112.871V1.49677H113.787L117.123 6.23795H117.184V1.49677H118.164Z" fill="white"/>
<path d="M103.567 2.33531V1.49677H108.642V2.33531H106.596V7.95284H105.61V2.33531H103.567Z" fill="white"/>
<path d="M102.089 1.49677V7.95284H101.1V1.49677H102.089Z" fill="white"/>
<path d="M92.5591 7.95284V1.49677H96.6704V2.33531H93.5485V4.30239H96.4559V5.13777H93.5485V7.11431H96.7089V7.95284H92.5591Z" fill="white"/>
<path d="M86.2108 7.95284V1.49677H87.2002V4.5798H87.2803L90.0307 1.49677H91.2763L88.6315 4.40326L91.2859 7.95284H90.0948L87.9751 5.06842L87.2002 5.94478V7.95284H86.2108Z" fill="white"/>
<path d="M84.4093 1.49677V7.95284H83.4199V1.49677H84.4093Z" fill="white"/>
<path d="M77.9697 7.95284V1.49677H78.9591V7.11431H81.9305V7.95284H77.9697Z" fill="white"/>
</svg>
