<svg width="15" height="15" viewBox="0 0 15 15" fill="none" xmlns="http://www.w3.org/2000/svg">
<path d="M5.78909 1.03698C6.04103 0.533092 6.49624 2.6841e-08 7.20508 0C7.91391 -5.3682e-08 8.36912 0.533092 8.62107 1.03698C8.88102 1.55689 9.00635 2.19002 9.00635 2.7019V6.02613L13.6634 8.35464C14.121 8.58348 14.4102 9.05127 14.4102 9.56297V10.8076C14.4102 10.94 14.3519 11.0657 14.2509 11.1512C14.1499 11.2368 14.0164 11.2736 13.8858 11.2518L8.92619 10.4252L8.588 12.4543L9.77509 13.6414C9.90388 13.7702 9.9424 13.9639 9.8727 14.1322C9.803 14.3004 9.6388 14.4102 9.45667 14.4102H4.95349C4.77136 14.4102 4.60715 14.3004 4.53745 14.1322C4.46775 13.9639 4.50628 13.7702 4.63507 13.6414L5.82215 12.4543L5.48397 10.4252L0.524349 11.2518C0.393778 11.2736 0.260246 11.2368 0.159244 11.1512C0.0582411 11.0657 0 10.94 0 10.8076L0 9.56297C0 9.05127 0.289107 8.58348 0.746788 8.35464L5.40381 6.02613V2.7019C5.40381 2.19002 5.52914 1.55689 5.78909 1.03698Z" fill="#F3F3F3"/>
</svg>
