<svg width="21" height="15" viewBox="0 0 21 15" fill="none" xmlns="http://www.w3.org/2000/svg">
<rect width="20.3438" height="14.5312" rx="1.45312" fill="white"/>
<mask id="mask0_130_7301" style="mask-type:luminance" maskUnits="userSpaceOnUse" x="0" y="0" width="21" height="15">
<rect width="20.3438" height="14.5312" rx="1.45312" fill="white"/>
</mask>
<g mask="url(#mask0_130_7301)">
<path d="M20.3438 14.5312H0L0 13.5625H20.3438V14.5312ZM20.3438 12.5938H0L0 11.625H20.3438V12.5938ZM20.3438 10.6562H0L0 9.6875H20.3438V10.6562ZM20.3438 8.71875H0L0 7.75H20.3438V8.71875ZM20.3438 6.78125H0L0 5.8125H20.3438V6.78125ZM20.3438 4.84375H0L0 3.875L20.3438 3.875V4.84375ZM20.3438 2.90625L0 2.90625L0 1.9375L20.3438 1.9375V2.90625ZM20.3438 0.96875L0 0.96875L0 0L20.3438 0V0.96875Z" fill="#D02F44"/>
<rect width="8.71875" height="6.78125" fill="#46467F"/>
<g filter="url(#filter0_d_130_7301)">
<path d="M1.45312 4.84375C1.72064 4.84375 1.9375 5.06061 1.9375 5.32812C1.9375 5.59564 1.72064 5.8125 1.45312 5.8125C1.18561 5.8125 0.968751 5.59564 0.96875 5.32812C0.96875 5.06061 1.18561 4.84375 1.45312 4.84375ZM3.39062 4.84375C3.65814 4.84375 3.875 5.06061 3.875 5.32812C3.875 5.59564 3.65814 5.8125 3.39062 5.8125C3.12318 5.81242 2.90625 5.59559 2.90625 5.32812C2.90625 5.06066 3.12318 4.84383 3.39062 4.84375ZM5.32812 4.84375C5.59549 4.84393 5.8125 5.06072 5.8125 5.32812C5.8125 5.59553 5.59549 5.81232 5.32812 5.8125C5.06061 5.8125 4.84375 5.59564 4.84375 5.32812C4.84375 5.06061 5.06061 4.84375 5.32812 4.84375ZM7.26562 4.84375C7.53314 4.84375 7.75 5.06061 7.75 5.32812C7.75 5.59564 7.53314 5.8125 7.26562 5.8125C6.99817 5.81243 6.78125 5.59559 6.78125 5.32812C6.78125 5.06066 6.99817 4.84382 7.26562 4.84375ZM2.42188 3.875C2.68928 3.87513 2.90625 4.09194 2.90625 4.35938C2.90625 4.62681 2.68928 4.84362 2.42188 4.84375C2.15436 4.84375 1.9375 4.62688 1.9375 4.35938C1.9375 4.09186 2.15436 3.875 2.42188 3.875ZM4.35938 3.875C4.62685 3.87505 4.84375 4.09189 4.84375 4.35938C4.84375 4.62685 4.62684 4.8437 4.35938 4.84375C4.09186 4.84375 3.875 4.62688 3.875 4.35938C3.875 4.09186 4.09186 3.875 4.35938 3.875ZM6.29688 3.875C6.56439 3.875 6.78125 4.09186 6.78125 4.35938C6.78125 4.62688 6.56439 4.84375 6.29688 4.84375C6.02953 4.84355 5.8125 4.62676 5.8125 4.35938C5.8125 4.09199 6.02953 3.8752 6.29688 3.875ZM1.45312 2.90625C1.72064 2.90625 1.9375 3.12311 1.9375 3.39062C1.93749 3.65813 1.72063 3.875 1.45312 3.875C1.18562 3.875 0.968757 3.65813 0.96875 3.39062C0.96875 3.12311 1.18561 2.90625 1.45312 2.90625ZM3.39062 2.90625C3.65814 2.90625 3.875 3.12311 3.875 3.39062C3.87499 3.65813 3.65813 3.875 3.39062 3.875C3.12318 3.87492 2.90626 3.65808 2.90625 3.39062C2.90625 3.12316 3.12318 2.90633 3.39062 2.90625ZM5.32812 2.90625C5.59549 2.90643 5.8125 3.12322 5.8125 3.39062C5.81249 3.65802 5.59548 3.87482 5.32812 3.875C5.06062 3.875 4.84376 3.65813 4.84375 3.39062C4.84375 3.12311 5.06061 2.90625 5.32812 2.90625ZM7.26562 2.90625C7.53314 2.90625 7.75 3.12311 7.75 3.39062C7.74999 3.65813 7.53313 3.875 7.26562 3.875C6.99818 3.87493 6.78126 3.65809 6.78125 3.39062C6.78125 3.12316 6.99817 2.90632 7.26562 2.90625ZM2.42188 1.9375C2.68928 1.93763 2.90625 2.15444 2.90625 2.42188C2.90625 2.68931 2.68928 2.90612 2.42188 2.90625C2.15436 2.90625 1.9375 2.68939 1.9375 2.42188C1.9375 2.15436 2.15436 1.9375 2.42188 1.9375ZM4.35938 1.9375C4.62685 1.93755 4.84375 2.15439 4.84375 2.42188C4.84375 2.68936 4.62685 2.9062 4.35938 2.90625C4.09186 2.90625 3.875 2.68939 3.875 2.42188C3.875 2.15436 4.09186 1.9375 4.35938 1.9375ZM6.29688 1.9375C6.56439 1.9375 6.78125 2.15436 6.78125 2.42188C6.78125 2.68939 6.56439 2.90625 6.29688 2.90625C6.02953 2.90605 5.8125 2.68926 5.8125 2.42188C5.8125 2.15449 6.02953 1.9377 6.29688 1.9375ZM1.45312 0.96875C1.72064 0.96875 1.9375 1.18561 1.9375 1.45312C1.9375 1.72064 1.72064 1.9375 1.45312 1.9375C1.18561 1.9375 0.96875 1.72064 0.96875 1.45312C0.96875 1.18561 1.18561 0.96875 1.45312 0.96875ZM3.39062 0.96875C3.65814 0.96875 3.875 1.18561 3.875 1.45312C3.875 1.72064 3.65814 1.9375 3.39062 1.9375C3.12318 1.93742 2.90625 1.72059 2.90625 1.45312C2.90625 1.18566 3.12318 0.96883 3.39062 0.96875ZM5.32812 0.96875C5.59549 0.968926 5.8125 1.18572 5.8125 1.45312C5.8125 1.72053 5.59549 1.93732 5.32812 1.9375C5.06061 1.9375 4.84375 1.72064 4.84375 1.45312C4.84375 1.18561 5.06061 0.96875 5.32812 0.96875ZM7.26562 0.96875C7.53314 0.96875 7.75 1.18561 7.75 1.45313C7.75 1.72064 7.53314 1.9375 7.26562 1.9375C6.99818 1.93743 6.78125 1.72059 6.78125 1.45312C6.78125 1.18566 6.99817 0.968822 7.26562 0.96875Z" fill="url(#paint0_linear_130_7301)"/>
</g>
</g>
<defs>
<filter id="filter0_d_130_7301" x="0.96875" y="0.96875" width="6.78125" height="5.57031" filterUnits="userSpaceOnUse" color-interpolation-filters="sRGB">
<feFlood flood-opacity="0" result="BackgroundImageFix"/>
<feColorMatrix in="SourceAlpha" type="matrix" values="0 0 0 0 0 0 0 0 0 0 0 0 0 0 0 0 0 0 127 0" result="hardAlpha"/>
<feOffset dy="0.726562"/>
<feColorMatrix type="matrix" values="0 0 0 0 0 0 0 0 0 0 0 0 0 0 0 0 0 0 0.06 0"/>
<feBlend mode="normal" in2="BackgroundImageFix" result="effect1_dropShadow_130_7301"/>
<feBlend mode="normal" in="SourceGraphic" in2="effect1_dropShadow_130_7301" result="shape"/>
</filter>
<linearGradient id="paint0_linear_130_7301" x1="0.96875" y1="0.96875" x2="0.96875" y2="5.81256" gradientUnits="userSpaceOnUse">
<stop stop-color="white"/>
<stop offset="1" stop-color="#F0F0F0"/>
</linearGradient>
</defs>
</svg>
